<svg width="52" height="52" viewBox="0 0 52 52" fill="none" xmlns="http://www.w3.org/2000/svg">
<path d="M44.2504 38.3792L32.5 22.2219V6.5H35.75V3.25H16.25V6.5H19.5V22.2219L7.74967 38.3792C7.0409 39.3534 6.61544 40.5046 6.52037 41.7055C6.4253 42.9064 6.66432 44.1102 7.21099 45.1837C7.75766 46.2572 8.59066 47.1585 9.61782 47.7879C10.645 48.4173 11.8263 48.7503 13.0309 48.75H38.9675C40.1722 48.7503 41.3535 48.4173 42.3806 47.7879C43.4078 47.1585 44.2408 46.2572 44.7875 45.1837C45.3341 44.1102 45.5732 42.9064 45.4781 41.7055C45.383 40.5046 44.9576 39.3534 44.2488 38.3792M22.75 23.2781V6.5H29.25V23.2781L33.5937 29.25H18.4064L22.75 23.2781ZM38.9692 45.5H13.0325C12.4277 45.4993 11.8348 45.3316 11.3193 45.0153C10.8038 44.6989 10.3857 44.2463 10.1112 43.7073C9.83664 43.1684 9.71636 42.5641 9.76361 41.9611C9.81086 41.3581 10.0238 40.7799 10.3789 40.2903L16.0437 32.5H35.9564L41.6228 40.2903C41.9779 40.7799 42.1909 41.3581 42.2381 41.9611C42.2854 42.5641 42.1651 43.1684 41.8906 43.7073C41.616 44.2463 41.1979 44.6989 40.6824 45.0153C40.1669 45.3316 39.574 45.4993 38.9692 45.5Z" fill="#353535"/>
</svg>
