<svg width="52" height="52" viewBox="0 0 52 52" fill="none" xmlns="http://www.w3.org/2000/svg">
<g clip-path="url(#clip0_1_139)">
<path d="M24.6137 15.3994L30.0653 23.5768L24.6137 31.7543H16.4362L10.9846 23.5768L16.4362 15.3994H24.6137Z" stroke="#353535" stroke-width="3" stroke-linecap="round" stroke-linejoin="round"/>
<path d="M38.2427 23.577L43.6943 15.3996L38.2427 7.22217H30.0652L24.6136 15.3996L30.0652 23.577M38.2427 23.577H30.0652M38.2427 23.577L43.6943 31.7544M30.0652 23.577L24.6136 31.7544L30.0652 39.9318M38.2427 39.9318L43.6943 48.1093M38.2427 39.9318L43.6943 31.7544M38.2427 39.9318H30.0652M10.9846 7.22217L16.4362 15.3996M30.0652 39.9318L27.3394 44.0206M16.4362 31.7544L13.7104 35.8431M10.9846 23.577H8.25879M43.6943 31.7544H51.8717" stroke="#353535" stroke-width="3" stroke-linecap="round" stroke-linejoin="round"/>
<path d="M24.6136 49.4724C25.3663 49.4724 25.9765 48.8622 25.9765 48.1095C25.9765 47.3568 25.3663 46.7466 24.6136 46.7466C23.8609 46.7466 23.2507 47.3568 23.2507 48.1095C23.2507 48.8622 23.8609 49.4724 24.6136 49.4724Z" fill="#353535"/>
<path d="M10.9847 41.2947C11.7374 41.2947 12.3476 40.6845 12.3476 39.9318C12.3476 39.179 11.7374 38.5688 10.9847 38.5688C10.232 38.5688 9.62183 39.179 9.62183 39.9318C9.62183 40.6845 10.232 41.2947 10.9847 41.2947Z" fill="#353535"/>
<path d="M2.80724 24.9397C3.55995 24.9397 4.17014 24.3295 4.17014 23.5768C4.17014 22.8241 3.55995 22.2139 2.80724 22.2139C2.05453 22.2139 1.44434 22.8241 1.44434 23.5768C1.44434 24.3295 2.05453 24.9397 2.80724 24.9397Z" fill="#353535"/>
</g>
<defs>
<clipPath id="clip0_1_139">
<rect width="52" height="52" fill="white"/>
</clipPath>
</defs>
</svg>
