<svg width="201" height="57" viewBox="0 0 201 57" fill="none" xmlns="http://www.w3.org/2000/svg">
<g clip-path="url(#clip0_1_64)">
<mask id="mask0_1_64" style="mask-type:luminance" maskUnits="userSpaceOnUse" x="0" y="0" width="82" height="57">
<path d="M82 0H0V56.0174H82V0Z" fill="white"/>
</mask>
<g mask="url(#mask0_1_64)">
<path d="M0 0C27.06 0 54.12 0 82 0C82 18.4858 82 36.9715 82 56.0174C54.94 56.0174 27.88 56.0174 0 56.0174C0 37.5317 0 19.0459 0 0Z" fill="white"/>
<path d="M0 0C27.06 0 54.12 0 82 0C82 18.4858 82 36.9715 82 56.0174C54.94 56.0174 27.88 56.0174 0 56.0174C0 37.5317 0 19.0459 0 0ZM23.3605 6.59496C23.3207 6.63022 23.281 6.66548 23.24 6.70181C22.3334 7.50765 21.432 8.34938 20.6812 9.30462C20.5464 9.47593 20.4097 9.64342 20.2691 9.80989C19.1811 11.1059 18.2534 12.5244 17.4012 13.9845C17.3694 14.0388 17.3377 14.0931 17.3049 14.1491C16.8486 14.9362 16.4339 15.7442 16.0256 16.5569C15.979 16.6495 15.9323 16.742 15.8842 16.8373C15.5972 17.4135 15.336 17.9954 15.0969 18.593C14.6184 18.2372 14.273 17.7873 13.905 17.3217C13.7991 17.1893 13.6932 17.0568 13.5872 16.9244C13.6591 16.9127 13.6591 16.9127 13.7325 16.9008C13.8277 16.883 13.8277 16.883 13.9249 16.8648C14.0189 16.8482 14.0189 16.8482 14.1149 16.8313C14.5124 16.6918 14.6783 16.3667 14.854 16.008C14.8943 15.923 14.8943 15.923 14.9355 15.8362C14.9787 15.7471 14.9787 15.7471 15.0227 15.6563C15.0834 15.5307 15.1437 15.405 15.2038 15.2792C15.2946 15.089 15.3864 14.8992 15.4784 14.7095C15.5375 14.5869 15.5966 14.4642 15.6556 14.3414C15.6959 14.2578 15.6959 14.2578 15.7371 14.1726C15.9412 13.744 16.1114 13.3154 16.2888 12.8721C11.9885 12.8721 7.68829 12.8721 3.25775 12.8721C3.25775 14.1831 3.25775 15.4942 3.25775 16.845C3.88705 16.9236 4.51636 17.0023 5.16473 17.0833C5.49672 17.1529 5.79833 17.2217 6.11822 17.3217C6.20948 17.3484 6.30074 17.3752 6.39477 17.4028C8.28764 17.9892 10.1616 19.1372 11.3624 20.7384C7.3506 20.7777 7.3506 20.7777 3.25775 20.8178C3.25775 30.9916 3.25775 41.1653 3.25775 51.6473C7.69483 51.6571 7.69483 51.6571 12.2215 51.6672C13.1519 51.67 14.0824 51.673 15.041 51.6759C15.8826 51.677 15.8826 51.677 16.7243 51.6776C17.096 51.6779 17.4679 51.6791 17.8397 51.6808C20.6337 51.7181 20.6337 51.7181 23.3987 51.3699C23.6767 51.3137 23.9562 51.2684 24.2361 51.2227C26.5717 50.8193 28.9413 49.5808 30.3375 47.6329C30.6816 47.1163 30.9261 46.5842 31.1473 46.0058C31.1745 45.9417 31.2016 45.8776 31.2295 45.8115C31.8914 44.059 31.7135 41.8093 31.038 40.0912C30.9707 39.9428 30.9012 39.7955 30.8295 39.6492C30.7935 39.5752 30.7575 39.5011 30.7205 39.4248C29.9417 37.9114 28.6372 36.7664 27.095 36.0736C27.095 36.0212 27.095 35.9688 27.095 35.9147C27.2148 35.8055 27.3401 35.7023 27.4675 35.6018C27.5472 35.538 27.627 35.4742 27.7092 35.4085C27.7518 35.3745 27.7943 35.3405 27.8381 35.3055C28.0571 35.1283 28.2711 34.9454 28.4855 34.7626C28.9444 34.3729 29.4085 33.99 29.876 33.6105C29.9735 33.5312 30.0709 33.4519 30.1684 33.3727C30.384 33.1973 30.5999 33.0221 30.8158 32.847C31.0323 32.6712 31.2483 32.4949 31.4638 32.318C32.0556 31.8334 32.6545 31.361 33.2642 30.8991C33.6527 30.6038 34.0329 30.3 34.41 29.9902C34.8327 29.6431 35.2621 29.3081 35.7011 28.9821C36.3103 28.5293 36.9025 28.062 37.471 27.5587C38.8313 26.3562 40.1187 25.5973 41.9883 25.6421C43.3674 25.7524 44.6178 26.3913 45.5191 27.4376C46.2445 28.3785 46.6064 29.374 46.5868 30.5563C46.5871 30.6339 46.5874 30.7115 46.5876 30.7914C46.5772 32.2067 46.0138 33.3638 45.0325 34.3702C44.678 34.715 44.3073 35.0303 43.921 35.3383C43.6134 35.5894 43.3226 35.8575 43.0305 36.1264C42.8578 36.2844 42.6826 36.438 42.5048 36.5901C42.184 36.8682 41.8891 37.1698 41.591 37.4716C41.3772 37.6827 41.1537 37.8774 40.9255 38.0725C40.7307 38.2466 40.548 38.4304 40.3643 38.6163C40.0846 38.8995 39.7977 39.1648 39.4952 39.4232C39.3005 39.5974 39.1177 39.7812 38.9341 39.9671C38.6543 40.2502 38.3674 40.5155 38.065 40.774C37.8703 40.9482 37.6875 41.132 37.5039 41.3178C37.2241 41.601 36.9372 41.8663 36.6348 42.1248C36.44 42.299 36.2573 42.4828 36.0736 42.6686C35.7939 42.9518 35.507 43.2171 35.2045 43.4756C34.9382 43.7138 34.6912 43.9711 34.4401 44.2252C34.2245 44.438 33.9992 44.6349 33.7691 44.8317C33.5257 45.0484 33.3004 45.2823 33.0717 45.5141C32.8636 45.7193 32.6449 45.9085 32.423 46.0983C32.1686 46.3256 31.932 46.5702 31.6942 46.8147C31.5446 46.9593 31.5446 46.9593 31.3857 47.0388C31.3857 48.5596 31.3857 50.0804 31.3857 51.6473C35.0583 51.654 38.7309 51.6604 42.4035 51.6641C42.458 51.6641 42.5125 51.6642 42.5686 51.6643C43.7536 51.6655 44.9386 51.6666 46.1236 51.6675C46.7048 51.6681 47.2861 51.6686 47.8673 51.6691C47.9252 51.6691 47.983 51.6692 48.0426 51.6693C49.9115 51.671 51.7805 51.6739 53.6494 51.6776C55.5727 51.6814 57.496 51.6838 59.4193 51.6846C59.692 51.6847 59.9647 51.6849 60.2374 51.685C60.2911 51.685 60.3448 51.685 60.4001 51.685C61.2051 51.6855 62.0102 51.6871 62.8153 51.6893C63.7343 51.6918 64.6533 51.693 65.5723 51.6924C66.0401 51.6921 66.5079 51.6925 66.9757 51.6946C70.8839 51.7117 75.3961 51.552 78.3937 48.6664C79.5702 47.4415 80.1439 46.0696 80.4109 44.4167C80.4259 44.3255 80.4403 44.2343 80.4554 44.1404C80.708 42.1066 80.1836 39.9795 78.9378 38.3444C77.9481 37.1024 76.6855 36.272 75.1968 35.7459C75.0078 35.6764 75.0078 35.6764 74.9283 35.5969C74.9861 35.5669 75.0438 35.5369 75.1033 35.5059C75.7753 35.1381 76.2961 34.7059 76.8353 34.1667C76.9001 34.1018 76.9649 34.037 77.0318 33.9702C78.5087 32.4122 78.9719 30.5206 78.9232 28.4337C78.8474 26.4899 78.0741 24.8857 76.6578 23.5454C75.0823 22.117 73.0021 21.4475 70.9468 21.0868C70.7965 21.0562 70.7965 21.0562 70.5581 20.9767C70.8366 20.6727 71.1161 20.3696 71.397 20.0677C71.4844 19.9732 71.5709 19.8778 71.6569 19.7821C72.8927 18.4585 74.6838 17.6433 76.4032 17.1876C76.4617 17.1715 76.5201 17.1554 76.5804 17.1388C77.3269 16.9519 78.0363 16.9235 78.8217 16.845C78.8217 15.5339 78.8217 14.2229 78.8217 12.8721C74.4953 12.8721 70.1688 12.8721 65.7112 12.8721C66.2226 14.0427 66.2226 14.0427 66.7585 15.202C66.8058 15.3021 66.8527 15.4025 66.8991 15.5031C67.2359 16.2929 67.2359 16.2929 67.8566 16.845C68.0955 16.8953 68.3278 16.9185 68.5717 16.9244C68.5093 16.9964 68.447 17.0684 68.3827 17.1426C67.9637 17.6279 67.5484 18.1118 67.1657 18.6269C67.062 18.7519 67.062 18.7519 66.9031 18.8314C66.8903 18.7898 66.8776 18.7482 66.8644 18.7054C66.7045 18.2038 66.5029 17.7297 66.2824 17.2522C66.2256 17.1292 66.2256 17.1292 66.1676 17.0036C65.0187 14.5422 63.6667 12.2201 61.9767 10.0911C61.8901 9.9812 61.8901 9.9812 61.8017 9.86916C60.6455 8.42804 59.3206 6.99447 57.845 5.87984C57.7304 5.78843 57.7304 5.78843 57.6134 5.69517C56.4696 4.78594 55.242 4.01937 53.9515 3.33721C53.9006 3.30981 53.8498 3.28242 53.7973 3.25418C51.5055 2.02466 48.9648 1.20965 46.4031 0.789608C46.3302 0.777649 46.2574 0.765691 46.1823 0.753371C45.9683 0.719966 45.7542 0.688854 45.5397 0.659286C45.4162 0.642066 45.2926 0.624285 45.1692 0.606173C43.8732 0.41838 42.5985 0.359803 41.2896 0.36621C40.9815 0.367485 40.6734 0.366215 40.3653 0.364697C34.1153 0.359365 28.0454 2.39659 23.3605 6.59496Z" fill="#353535"/>
<path d="M41.0186 4.34941C41.2645 4.35027 41.5104 4.3494 41.7563 4.3484C42.6818 4.34766 43.5811 4.38959 44.4962 4.52904C44.5941 4.54386 44.6919 4.55869 44.7928 4.57396C46.9372 4.92075 48.9838 5.54346 50.9322 6.51547C51.0017 6.55 51.0713 6.58453 51.1428 6.62011C52.0336 7.06634 52.8918 7.54019 53.7132 8.10462C53.7575 8.13473 53.8017 8.16493 53.8473 8.19599C55.7912 9.52675 57.6784 11.1582 59.1163 13.031C59.1795 13.1106 59.2427 13.1901 59.3078 13.2721C60.8167 15.1814 63.0892 18.3051 63.0892 20.8178C63.0435 20.8177 62.9979 20.8176 62.9508 20.8176C60.2336 20.8122 57.5164 20.8081 54.7992 20.8056C54.4716 20.8053 54.1441 20.805 53.8166 20.8047C53.7514 20.8046 53.6862 20.8046 53.619 20.8045C52.5686 20.8035 51.5181 20.8016 50.4677 20.7994C49.3868 20.7971 48.306 20.7959 47.2251 20.7954C46.5601 20.7951 45.8952 20.794 45.2303 20.7921C44.772 20.7908 44.3137 20.7905 43.8554 20.7908C43.5925 20.7909 43.3296 20.7905 43.0666 20.7894C41.9748 20.7847 40.895 20.8184 39.8084 20.9247C39.7121 20.934 39.6158 20.9434 39.5166 20.9531C37.159 21.206 35.0444 22.055 33.1338 23.4399C33.0738 23.4833 33.0139 23.5267 32.952 23.5714C32.1513 24.1526 31.3619 24.7483 30.5778 25.3518C30.5282 25.3899 30.4785 25.4278 30.4274 25.467C30.3176 25.5512 30.2082 25.6359 30.099 25.7209C30.0421 25.7646 29.9852 25.8084 29.9266 25.8534C29.8493 25.9133 29.8493 25.9133 29.7704 25.9744C29.6376 26.062 29.6376 26.062 29.4787 26.062C29.4478 25.9994 29.4168 25.9368 29.385 25.8723C28.3193 23.7974 26.5707 22.4744 24.3687 21.7465C24.1392 21.6731 23.9089 21.6025 23.6783 21.5329C23.5623 21.4964 23.5623 21.4964 23.444 21.459C21.9817 21.0246 20.4226 20.9523 18.9109 20.8178C18.9543 20.3483 19.0518 19.9467 19.2188 19.5067C19.2429 19.4425 19.2671 19.3783 19.292 19.3122C20.1899 16.9776 21.407 14.7728 23.0427 12.8721C23.1086 12.7916 23.1746 12.7111 23.2426 12.6281C24.1985 11.4697 25.2672 10.3708 26.4593 9.45539C26.5495 9.38142 26.6394 9.30713 26.7291 9.23252C27.4505 8.63595 28.2018 8.11336 29.002 7.62787C29.0982 7.56947 29.0982 7.56947 29.1963 7.50989C31.2254 6.29007 33.4156 5.3482 35.7454 4.88089C35.9326 4.84327 36.1194 4.80324 36.3062 4.76337C37.8685 4.43931 39.4253 4.34281 41.0186 4.34941Z" fill="#353535"/>
<path d="M40.8908 0.367495C40.9444 0.367503 40.9978 0.36751 41.053 0.367517C42.7247 0.367812 44.3559 0.42044 46.0059 0.715121C46.1008 0.731266 46.1958 0.747411 46.2936 0.764045C48.6611 1.17021 50.9965 1.88381 53.157 2.93993C53.2676 2.99263 53.3783 3.04528 53.4889 3.09791C56.6101 4.60188 59.5456 6.94525 61.659 9.69381C61.7596 9.81347 61.7597 9.81347 61.8623 9.93559C63.7717 12.2127 65.2125 14.9053 66.4512 17.5899C66.488 17.6692 66.5247 17.7485 66.5625 17.8302C66.6127 17.9408 66.6127 17.9408 66.6638 18.0536C66.7075 18.1498 66.7075 18.1498 66.7521 18.248C66.8266 18.4414 66.8684 18.6274 66.9032 18.8314C67.2299 18.5139 67.5296 18.1783 67.8269 17.8332C67.8723 17.7808 67.9178 17.7285 67.9646 17.6744C68.1758 17.4303 68.3835 17.1869 68.5718 16.9244C68.5257 16.9233 68.4796 16.9222 68.4321 16.921C68.37 16.9172 68.308 16.9135 68.244 16.9095C68.1831 16.9068 68.1224 16.904 68.0597 16.9011C67.7267 16.809 67.4778 16.5942 67.2878 16.3099C67.2024 16.1516 67.1247 15.9916 67.049 15.8285C67.0205 15.7692 66.9919 15.7099 66.9625 15.6488C66.8721 15.4604 66.7833 15.2712 66.6946 15.082C66.6344 14.9565 66.5743 14.831 66.514 14.7057C66.2248 14.1007 65.961 13.4962 65.7113 12.8721C70.0378 12.8721 74.3642 12.8721 78.8218 12.8721C78.8218 14.1831 78.8218 15.4942 78.8218 16.845C78.0351 16.9236 78.0351 16.9236 77.2326 17.0039C76.9157 17.0651 76.6176 17.1267 76.3089 17.2125C76.2333 17.2329 76.1576 17.2533 76.0796 17.2744C74.1815 17.8108 71.7542 19.0397 70.7336 20.8293C70.5809 21.0108 70.5093 21.0526 70.2707 21.0804C69.9977 21.0674 69.7295 21.0398 69.4581 21.0077C69.2479 20.988 69.0379 20.9689 68.8277 20.9506C68.7736 20.9458 68.7195 20.9408 68.6637 20.9358C68.0998 20.8866 67.5372 20.8788 66.9713 20.8781C66.8684 20.878 66.7655 20.8777 66.6595 20.8776C66.3879 20.8774 66.1163 20.8781 65.8447 20.8789C65.5471 20.8796 65.2493 20.8793 64.9517 20.8792C64.4389 20.8791 63.9261 20.8796 63.4133 20.8805C62.6719 20.8818 61.9306 20.8822 61.1892 20.8824C59.9857 20.8828 58.7821 20.8838 57.5787 20.8853C56.4113 20.8868 55.2439 20.8879 54.0765 20.8886C54.0042 20.8886 53.932 20.8886 53.8575 20.8887C53.495 20.8889 53.1323 20.8891 52.7698 20.8893C49.7735 20.8909 46.7773 20.8937 43.7811 20.8973C43.7811 20.8711 43.7811 20.8449 43.7811 20.8178C50.1528 20.8178 56.5244 20.8178 63.0892 20.8178C62.7701 19.7798 62.7701 19.7798 62.394 18.7668C62.3669 18.7005 62.3399 18.6342 62.312 18.5658C61.5345 16.6816 60.5481 14.945 59.2753 13.3488C59.1824 13.2309 59.1824 13.2309 59.0878 13.1105C58.0649 11.8336 56.91 10.6223 55.6202 9.61435C55.5277 9.53878 55.4355 9.46306 55.3434 9.38718C53.1718 7.6053 50.6549 6.28544 47.9923 5.40311C47.9376 5.38422 47.883 5.36533 47.8266 5.34588C47.0174 5.06766 46.1844 4.90667 45.3454 4.74759C45.2908 4.73717 45.2363 4.72675 45.1802 4.71602C43.9622 4.48528 42.7777 4.4348 41.54 4.4349C41.2914 4.43472 41.0429 4.43328 40.7943 4.43177C39.3028 4.42744 37.8361 4.52395 36.3717 4.81711C36.2947 4.83234 36.2947 4.83234 36.2162 4.84788C32.2953 5.63057 28.8195 7.47429 25.8237 10.0911C25.7591 10.1468 25.6944 10.2025 25.6278 10.2599C24.6921 11.0821 23.8058 11.9664 23.0427 12.9516C22.9433 13.0728 22.9433 13.0728 22.8419 13.1964C21.1376 15.2833 19.3683 18.115 18.9109 20.8178C19.1207 20.8178 19.3304 20.8178 19.5466 20.8178C19.5466 20.8441 19.5466 20.8703 19.5466 20.8973C14.1975 20.8973 8.84843 20.8973 3.33727 20.8973C3.33727 31.0448 3.33727 41.1923 3.33727 51.6473C3.31105 51.6473 3.28483 51.6473 3.25781 51.6473C3.25781 41.4736 3.25781 31.2999 3.25781 20.8178C7.26962 20.7785 7.26962 20.7785 11.3625 20.7384C9.05764 18.224 6.61679 17.1986 3.25781 16.845C3.25781 15.5339 3.25781 14.2229 3.25781 12.8721C7.55804 12.8721 11.8583 12.8721 16.2888 12.8721C16.0791 13.3441 15.8693 13.8161 15.6532 14.3023C15.5607 14.5111 15.4682 14.7198 15.3729 14.9349C15.2368 15.2316 15.2368 15.2316 15.1692 15.3772C15.1237 15.4766 15.0789 15.5765 15.0351 15.6767C14.62 16.6219 14.62 16.6219 14.163 16.8332C13.9527 16.9041 13.8118 16.9244 13.5873 16.9244C14.0476 17.4969 14.5207 18.0516 15.0175 18.593C15.1848 18.342 15.3128 18.0823 15.4421 17.8109C15.4954 17.6999 15.5488 17.5889 15.6021 17.478C15.6299 17.42 15.6576 17.3621 15.6863 17.3023C16.5964 15.4067 17.5543 13.5727 18.752 11.8392C18.8112 11.7531 18.8704 11.667 18.9314 11.5785C19.407 10.8958 19.9203 10.2476 20.4524 9.60831C20.5704 9.4664 20.6873 9.32361 20.8042 9.18075C21.6725 8.13183 22.636 7.10791 23.7165 6.27589C23.8896 6.13963 24.0531 5.99852 24.2175 5.85223C25.2344 4.95755 26.3952 4.23907 27.5718 3.57559C27.6419 3.53595 27.712 3.49631 27.7842 3.45547C30.5402 1.91598 33.642 0.929278 36.7812 0.583869C36.9653 0.563167 37.1491 0.540091 37.3328 0.515818C38.5161 0.366465 39.6995 0.365741 40.8908 0.367495Z" fill="#DE614C"/>
<path d="M25.4531 13.1794C25.5065 13.1792 25.5599 13.179 25.615 13.1788C25.7964 13.1784 25.9777 13.1785 26.1591 13.1787C26.2895 13.1784 26.42 13.1782 26.5505 13.178C26.9106 13.1773 27.2709 13.1772 27.6311 13.1771C28.0189 13.1769 28.4067 13.1764 28.7946 13.1758C29.6435 13.1747 30.4924 13.1742 31.3413 13.1739C31.8711 13.1737 32.4008 13.1734 32.9306 13.173C34.3966 13.172 35.8624 13.1712 37.3283 13.1709C37.4692 13.1709 37.4692 13.1709 37.6128 13.1709C37.707 13.1709 37.8011 13.1708 37.8981 13.1708C38.0889 13.1708 38.2796 13.1707 38.4703 13.1707C38.565 13.1707 38.6596 13.1707 38.7571 13.1707C40.2901 13.1703 41.8233 13.169 43.3563 13.1671C44.9292 13.1653 46.502 13.1642 48.0748 13.1641C48.9584 13.1641 49.842 13.1636 50.7254 13.1622C51.4779 13.161 52.2304 13.1606 52.9828 13.1612C53.3668 13.1615 53.7509 13.1614 54.1349 13.1603C54.4864 13.1593 54.8379 13.1594 55.1894 13.1604C55.3166 13.1605 55.4439 13.1603 55.5711 13.1596C55.744 13.1587 55.9169 13.1593 56.0898 13.1603C56.1859 13.1602 56.282 13.1602 56.3809 13.1601C57.0452 13.2326 57.4071 13.5786 57.8148 14.0827C58.1371 14.4942 58.4442 14.9174 58.751 15.3404C58.9381 15.5982 59.1275 15.8536 59.3203 16.1071C59.3646 16.1654 59.4089 16.2237 59.4546 16.2838C59.5388 16.3942 59.6232 16.5045 59.7079 16.6144C59.9904 16.9863 59.9904 16.9863 59.9904 17.1627C47.5092 17.1627 35.0281 17.1627 22.1687 17.1627C22.6194 16.036 24.1326 13.1808 25.4531 13.1794Z" fill="#E0614B"/>
<path d="M10.3296 38.6957C12.6383 38.6893 12.6383 38.6893 13.7871 38.6878C14.4058 38.6868 15.0246 38.6858 15.6433 38.6837C16.1863 38.682 16.7293 38.681 17.2723 38.6806C17.4786 38.6804 17.6849 38.6797 17.8911 38.6789C22.0499 38.6622 22.0499 38.6622 23.5369 40.0486C24.2374 40.8244 24.4349 41.683 24.4113 42.7042C24.3563 43.5807 24.0509 44.4073 23.4401 45.0523C22.1899 46.1061 20.3499 46.3379 18.7727 46.3327C18.6354 46.3327 18.6354 46.3327 18.4953 46.3327C18.1944 46.3326 17.8935 46.332 17.5925 46.3314C17.3832 46.3312 17.1739 46.3311 16.9646 46.331C16.471 46.3308 15.9774 46.3301 15.4839 46.3293C14.8664 46.3284 14.2489 46.3279 13.6314 46.3275C12.5308 46.3267 11.4302 46.3251 10.3296 46.3236C10.3296 43.8064 10.3296 41.2892 10.3296 38.6957Z" fill="#353535"/>
<path d="M59.2751 38.6958C61.6403 38.6862 61.6403 38.6862 62.8175 38.6838C63.4515 38.6825 64.0854 38.6809 64.7194 38.6778C65.2217 38.6754 65.7241 38.6739 66.2264 38.6734C66.4918 38.6731 66.7571 38.6722 67.0225 38.6706C68.9829 38.6591 70.9708 38.6664 72.4616 40.1186C73.1017 40.7977 73.2739 41.5047 73.2746 42.4104C73.2755 42.4795 73.2765 42.5485 73.2775 42.6197C73.2797 43.589 72.9867 44.3324 72.3282 45.0437C71.6863 45.6382 70.8889 45.928 70.0465 46.0953C69.9824 46.1087 69.9182 46.1221 69.8521 46.136C69.1343 46.2829 68.4501 46.3352 67.7183 46.3327C67.581 46.3328 67.581 46.3328 67.4409 46.3328C67.1399 46.3327 66.839 46.3321 66.538 46.3315C66.3287 46.3313 66.1194 46.3312 65.9102 46.3311C65.4166 46.3309 64.923 46.3302 64.4295 46.3294C63.8119 46.3285 63.1945 46.328 62.577 46.3276C61.4764 46.3268 60.3758 46.3252 59.2751 46.3237C59.2751 43.8065 59.2751 41.2893 59.2751 38.6958Z" fill="#353535"/>
<path d="M59.1958 26.221C61.5006 26.2114 61.5006 26.2114 62.6436 26.209C63.2604 26.2078 63.8772 26.2061 64.494 26.2031C65.035 26.2004 65.5759 26.199 66.1169 26.1984C66.3227 26.198 66.5287 26.1971 66.7346 26.1959C67.024 26.1941 67.3134 26.1939 67.6029 26.1939C67.7292 26.1927 67.7292 26.1927 67.8582 26.1914C68.7904 26.1952 69.5521 26.4044 70.3198 26.9362C70.3903 26.9837 70.4608 27.0312 70.5334 27.0801C71.202 27.7127 71.7033 28.5184 71.7712 29.4508C71.7661 30.6626 71.5284 31.6671 70.6634 32.5749C69.7926 33.3373 68.814 33.5695 67.684 33.5582C67.5917 33.5582 67.4993 33.5582 67.4041 33.5583C67.102 33.5581 66.7997 33.5563 66.4975 33.5544C66.2867 33.5539 66.076 33.5536 65.8653 33.5534C65.3692 33.5527 64.8731 33.5507 64.377 33.5483C63.7561 33.5453 63.1351 33.5441 62.5143 33.5427C61.4081 33.5404 60.3019 33.5356 59.1958 33.5311C59.1958 31.1188 59.1958 28.7065 59.1958 26.221Z" fill="#353535"/>
<path d="M10.4089 26.221C12.7035 26.2146 12.7035 26.2146 13.8391 26.213C14.4526 26.2121 15.0661 26.2109 15.6796 26.209C16.2174 26.2072 16.7554 26.2063 17.2932 26.2059C17.4982 26.2056 17.7032 26.205 17.9082 26.2042C18.1958 26.203 18.4833 26.2028 18.7709 26.2029C18.8553 26.2024 18.9396 26.2018 19.0265 26.2012C20.0948 26.2041 21.0727 26.5007 21.866 27.2511C22.6292 28.11 22.9608 29.0481 22.9142 30.1814C22.8453 31.1306 22.3973 31.9884 21.7167 32.6421C21.3212 32.9792 20.9089 33.1987 20.4206 33.3721C20.305 33.4133 20.305 33.4133 20.187 33.4553C19.775 33.5708 19.3581 33.5519 18.9332 33.5491C18.841 33.5491 18.7486 33.5491 18.6535 33.5491C18.3496 33.5491 18.0457 33.5478 17.7417 33.5465C17.5305 33.5463 17.3193 33.5461 17.1081 33.5459C16.6097 33.5454 16.1114 33.5441 15.613 33.5425C14.9897 33.5405 14.3662 33.5397 13.7429 33.5388C12.6316 33.5372 11.5202 33.5341 10.4089 33.531C10.4089 31.1187 10.4089 28.7064 10.4089 26.221Z" fill="#353535"/>
<path d="M52.1241 34.7229C52.1503 34.7229 52.1765 34.7229 52.2035 34.7229C52.2035 38.4201 52.2035 42.1172 52.2035 45.9264C48.6113 45.9264 45.019 45.9264 41.3179 45.9264C41.449 45.7953 41.5801 45.6642 41.7152 45.5291C41.796 45.4474 41.8769 45.3657 41.9576 45.2839C42.37 44.8675 42.7811 44.4575 43.2283 44.078C43.4925 43.8433 43.7363 43.588 43.9846 43.3366C44.1984 43.1255 44.422 42.9308 44.6502 42.7357C44.8449 42.5615 45.0277 42.3777 45.2113 42.1919C45.4911 41.9087 45.778 41.6434 46.0804 41.3849C46.2751 41.2108 46.4579 41.027 46.6415 40.8411C46.9213 40.5579 47.2082 40.2926 47.5106 40.0341C47.7706 39.8017 48.0122 39.5514 48.2555 39.3016C48.4247 39.1364 48.5958 38.9821 48.7751 38.8283C49.101 38.5455 49.3977 38.2425 49.6907 37.926C49.7682 37.8426 49.7682 37.8426 49.8471 37.7575C50.671 36.8648 51.4076 35.9365 52.0226 34.8865C52.0561 34.8325 52.0896 34.7785 52.1241 34.7229Z" fill="#353535"/>
</g>
</g>
<path d="M107.44 28.176C108.059 28.3787 108.549 28.72 108.912 29.2C109.275 29.6693 109.456 30.256 109.456 30.96C109.456 31.9307 109.083 32.6827 108.336 33.216C107.589 33.7387 106.501 34 105.072 34H99.504V22.8H104.752C106.075 22.8 107.093 23.0613 107.808 23.584C108.523 24.096 108.88 24.8053 108.88 25.712C108.88 26.2667 108.752 26.7573 108.496 27.184C108.24 27.6107 107.888 27.9413 107.44 28.176ZM101.584 24.432V27.52H104.528C105.253 27.52 105.808 27.392 106.192 27.136C106.587 26.8693 106.784 26.4853 106.784 25.984C106.784 25.472 106.587 25.088 106.192 24.832C105.808 24.5653 105.253 24.432 104.528 24.432H101.584ZM104.944 32.368C106.555 32.368 107.36 31.8293 107.36 30.752C107.36 29.6747 106.555 29.136 104.944 29.136H101.584V32.368H104.944ZM118.988 32.24V34H110.732V32.608L115.18 28.384C115.681 27.904 116.017 27.488 116.188 27.136C116.369 26.7733 116.46 26.416 116.46 26.064C116.46 25.5413 116.284 25.1413 115.932 24.864C115.58 24.5867 115.063 24.448 114.38 24.448C113.239 24.448 112.364 24.8373 111.756 25.616L110.3 24.496C110.737 23.9093 111.324 23.456 112.06 23.136C112.807 22.8053 113.639 22.64 114.556 22.64C115.772 22.64 116.743 22.928 117.468 23.504C118.193 24.08 118.556 24.864 118.556 25.856C118.556 26.464 118.428 27.0347 118.172 27.568C117.916 28.1013 117.425 28.7093 116.7 29.392L113.708 32.24H118.988ZM128.924 28.176C129.543 28.3787 130.034 28.72 130.396 29.2C130.759 29.6693 130.94 30.256 130.94 30.96C130.94 31.9307 130.567 32.6827 129.82 33.216C129.074 33.7387 127.986 34 126.556 34H120.988V22.8H126.236C127.559 22.8 128.578 23.0613 129.292 23.584C130.007 24.096 130.364 24.8053 130.364 25.712C130.364 26.2667 130.236 26.7573 129.98 27.184C129.724 27.6107 129.372 27.9413 128.924 28.176ZM123.068 24.432V27.52H126.012C126.738 27.52 127.292 27.392 127.676 27.136C128.071 26.8693 128.268 26.4853 128.268 25.984C128.268 25.472 128.071 25.088 127.676 24.832C127.292 24.5653 126.738 24.432 126.012 24.432H123.068ZM126.428 32.368C128.039 32.368 128.844 31.8293 128.844 30.752C128.844 29.6747 128.039 29.136 126.428 29.136H123.068V32.368H126.428ZM142.766 34.16C141.635 34.16 140.611 33.9147 139.694 33.424C138.787 32.9227 138.073 32.2347 137.55 31.36C137.038 30.4853 136.782 29.4987 136.782 28.4C136.782 27.3013 137.043 26.3147 137.566 25.44C138.089 24.5653 138.803 23.8827 139.71 23.392C140.627 22.8907 141.651 22.64 142.782 22.64C143.699 22.64 144.537 22.8 145.294 23.12C146.051 23.44 146.691 23.904 147.214 24.512L145.87 25.776C145.059 24.9013 144.062 24.464 142.878 24.464C142.11 24.464 141.422 24.6347 140.814 24.976C140.206 25.3067 139.731 25.7707 139.39 26.368C139.049 26.9653 138.878 27.6427 138.878 28.4C138.878 29.1573 139.049 29.8347 139.39 30.432C139.731 31.0293 140.206 31.4987 140.814 31.84C141.422 32.1707 142.11 32.336 142.878 32.336C144.062 32.336 145.059 31.8933 145.87 31.008L147.214 32.288C146.691 32.896 146.046 33.36 145.278 33.68C144.521 34 143.683 34.16 142.766 34.16ZM152.543 34.112C151.679 34.112 150.9 33.9253 150.207 33.552C149.513 33.1787 148.969 32.6613 148.575 32C148.191 31.328 147.999 30.5707 147.999 29.728C147.999 28.8853 148.191 28.1333 148.575 27.472C148.969 26.8107 149.513 26.2933 150.207 25.92C150.9 25.5467 151.679 25.36 152.543 25.36C153.417 25.36 154.201 25.5467 154.895 25.92C155.588 26.2933 156.127 26.8107 156.511 27.472C156.905 28.1333 157.103 28.8853 157.103 29.728C157.103 30.5707 156.905 31.328 156.511 32C156.127 32.6613 155.588 33.1787 154.895 33.552C154.201 33.9253 153.417 34.112 152.543 34.112ZM152.543 32.4C153.279 32.4 153.887 32.1547 154.367 31.664C154.847 31.1733 155.087 30.528 155.087 29.728C155.087 28.928 154.847 28.2827 154.367 27.792C153.887 27.3013 153.279 27.056 152.543 27.056C151.807 27.056 151.199 27.3013 150.719 27.792C150.249 28.2827 150.015 28.928 150.015 29.728C150.015 30.528 150.249 31.1733 150.719 31.664C151.199 32.1547 151.807 32.4 152.543 32.4ZM159.499 34.112C159.136 34.112 158.827 33.9893 158.571 33.744C158.315 33.488 158.187 33.168 158.187 32.784C158.187 32.3893 158.31 32.0693 158.555 31.824C158.811 31.5787 159.126 31.456 159.499 31.456C159.872 31.456 160.182 31.5787 160.427 31.824C160.683 32.0693 160.811 32.3893 160.811 32.784C160.811 33.168 160.683 33.488 160.427 33.744C160.171 33.9893 159.862 34.112 159.499 34.112ZM163.421 31.456C163.794 31.456 164.104 31.5787 164.349 31.824C164.594 32.0693 164.717 32.3893 164.717 32.784C164.717 32.9547 164.69 33.136 164.637 33.328C164.594 33.5093 164.498 33.7867 164.349 34.16L163.533 36.416H162.237L162.877 33.968C162.642 33.872 162.456 33.7227 162.317 33.52C162.189 33.3067 162.125 33.0613 162.125 32.784C162.125 32.3893 162.248 32.0693 162.493 31.824C162.738 31.5787 163.048 31.456 163.421 31.456ZM171.285 22.8H173.365V32.24H179.221V34H171.285V22.8ZM185.729 33.536C185.495 33.728 185.207 33.872 184.865 33.968C184.535 34.064 184.183 34.112 183.809 34.112C182.871 34.112 182.145 33.8667 181.633 33.376C181.121 32.8853 180.865 32.1707 180.865 31.232V27.12H179.457V25.52H180.865V23.568H182.865V25.52H185.153V27.12H182.865V31.184C182.865 31.6 182.967 31.92 183.169 32.144C183.372 32.3573 183.665 32.464 184.049 32.464C184.497 32.464 184.871 32.3467 185.169 32.112L185.729 33.536ZM195.461 22.128V34H193.541V32.896C193.211 33.3013 192.8 33.6053 192.309 33.808C191.829 34.0107 191.296 34.112 190.709 34.112C189.888 34.112 189.147 33.9307 188.485 33.568C187.835 33.2053 187.323 32.6933 186.949 32.032C186.576 31.36 186.389 30.592 186.389 29.728C186.389 28.864 186.576 28.1013 186.949 27.44C187.323 26.7787 187.835 26.2667 188.485 25.904C189.147 25.5413 189.888 25.36 190.709 25.36C191.275 25.36 191.792 25.456 192.261 25.648C192.731 25.84 193.131 26.128 193.461 26.512V22.128H195.461ZM190.949 32.4C191.429 32.4 191.861 32.2933 192.245 32.08C192.629 31.856 192.933 31.5413 193.157 31.136C193.381 30.7307 193.493 30.2613 193.493 29.728C193.493 29.1947 193.381 28.7253 193.157 28.32C192.933 27.9147 192.629 27.6053 192.245 27.392C191.861 27.168 191.429 27.056 190.949 27.056C190.469 27.056 190.037 27.168 189.653 27.392C189.269 27.6053 188.965 27.9147 188.741 28.32C188.517 28.7253 188.405 29.1947 188.405 29.728C188.405 30.2613 188.517 30.7307 188.741 31.136C188.965 31.5413 189.269 31.856 189.653 32.08C190.037 32.2933 190.469 32.4 190.949 32.4ZM198.718 34.112C198.355 34.112 198.046 33.9893 197.79 33.744C197.534 33.488 197.406 33.168 197.406 32.784C197.406 32.3893 197.528 32.0693 197.774 31.824C198.03 31.5787 198.344 31.456 198.718 31.456C199.091 31.456 199.4 31.5787 199.646 31.824C199.902 32.0693 200.03 32.3893 200.03 32.784C200.03 33.168 199.902 33.488 199.646 33.744C199.39 33.9893 199.08 34.112 198.718 34.112Z" fill="white"/>
<defs>
<clipPath id="clip0_1_64">
<rect width="82" height="56.0174" fill="white"/>
</clipPath>
</defs>
</svg>
