<svg width="52" height="52" viewBox="0 0 52 52" fill="none" xmlns="http://www.w3.org/2000/svg">
<path d="M35.75 22.75C33.4658 22.7509 31.2227 23.3582 29.25 24.5099V14.625C29.25 11.6082 28.0516 8.71489 25.9183 6.58166C23.7851 4.44843 20.8918 3.25 17.875 3.25C14.8582 3.25 11.9649 4.44843 9.83166 6.58166C7.69843 8.71489 6.5 11.6082 6.5 14.625V37.375C6.49942 39.6934 7.20735 41.9565 8.52895 43.8613C9.85055 45.7661 11.7227 47.2215 13.8946 48.0326C16.0664 48.8436 18.4343 48.9716 20.6809 48.3993C22.9275 47.827 24.9456 46.5818 26.4648 44.8305C27.9633 46.3631 29.8178 47.5011 31.8628 48.1433C33.9078 48.7855 36.0799 48.9119 38.1856 48.5111C40.2913 48.1104 42.2652 47.195 43.9313 45.8466C45.5975 44.4981 46.9043 42.7584 47.7352 40.7825C48.5661 38.8066 48.8953 36.6559 48.6935 34.5219C48.4918 32.388 47.7653 30.3371 46.5788 28.5519C45.3923 26.7668 43.7827 25.3028 41.8933 24.2905C40.0039 23.2782 37.8935 22.749 35.75 22.75ZM35.75 26C38.052 26.004 40.2785 26.8216 42.0359 28.3084C43.7933 29.7952 44.9685 31.8555 45.3538 34.125H26.1463C26.5315 31.8555 27.7067 29.7952 29.4641 28.3084C31.2215 26.8216 33.448 26.004 35.75 26ZM9.75 14.625C9.75 12.4701 10.606 10.4035 12.1298 8.87976C13.6535 7.35602 15.7201 6.5 17.875 6.5C20.0299 6.5 22.0965 7.35602 23.6202 8.87976C25.144 10.4035 26 12.4701 26 14.625V24.375H9.75V14.625ZM17.875 45.5C15.7209 45.4974 13.6558 44.6406 12.1326 43.1174C10.6094 41.5942 9.75258 39.5291 9.75 37.375V27.625H25.6181C23.9875 29.6466 23.0032 32.1122 22.7934 34.701C22.5835 37.2897 23.1579 39.8817 24.4416 42.1395C23.6908 43.179 22.7041 44.0255 21.5626 44.6097C20.4211 45.1939 19.1573 45.499 17.875 45.5ZM35.75 45.5C33.448 45.496 31.2215 44.6784 29.4641 43.1916C27.7067 41.7048 26.5315 39.6445 26.1463 37.375H45.3538C44.9685 39.6445 43.7933 41.7048 42.0359 43.1916C40.2785 44.6784 38.052 45.496 35.75 45.5Z" fill="#353535"/>
</svg>
